<svg id="Layer_1" data-name="Layer 1" xmlns="http://www.w3.org/2000/svg" viewBox="0 0 286 39.38"><defs><style>.cls-1{fill:#0751a0;}.cls-2{fill:#ef443d;}</style></defs><title>Áveitan Logo Color</title><polygon class="cls-1" points="21.58 7.04 0 7.04 0 39.38 17.27 39.38 11.07 22.15 11.07 14.75 14.15 14.75 14.15 22.15 20.34 39.38 33.22 39.38 21.58 7.04"/><polygon class="cls-1" points="145.81 7.04 167.39 7.04 167.39 39.38 150.12 39.38 156.31 22.15 156.31 14.75 153.24 14.75 153.24 22.15 147.05 39.38 134.16 39.38 145.81 7.04"/><polygon class="cls-1" points="49.46 32.31 46.39 32.31 37.31 7.04 24.66 7.04 36.3 39.38 57.88 39.38 57.88 7.04 40.38 7.04 49.46 32.31"/><polygon class="cls-1" points="191.34 7.04 200.41 32.31 197.35 32.31 188.26 7.04 170.46 7.04 170.46 39.38 186.63 39.38 177.55 14.11 180.62 14.11 189.7 39.38 207.5 39.38 207.5 7.04 191.34 7.04"/><polygon class="cls-1" points="20.87 5.05 19.05 0 0 0 0 5.05 20.87 5.05"/><rect class="cls-1" x="92.25" y="7.04" width="12.46" height="32.33"/><polygon class="cls-1" points="139.84 7.04 107.79 7.04 107.79 15.11 117.58 15.11 117.58 39.38 130.05 39.38 130.05 15.11 139.84 15.11 139.84 7.04"/><polygon class="cls-1" points="89.18 14.91 89.18 7.04 60.95 7.04 60.95 39.38 89.18 39.38 89.18 30.19 70.99 30.19 73.26 27.06 88.24 27.06 88.24 18.04 70.99 18.04 73.26 14.91 89.18 14.91"/><path class="cls-2" d="M222.64,23.22a9.53,9.53,0,0,0,9.06-6.58,9.53,9.53,0,0,0,18.12,0,9.53,9.53,0,0,0,18.13,0,9.53,9.53,0,0,0,18.05.2V7.24A9.52,9.52,0,0,1,268,7a9.53,9.53,0,0,1-18.13,0A9.52,9.52,0,0,1,231.7,7a9.52,9.52,0,0,1-18,.2v9.6A9.53,9.53,0,0,0,222.64,23.22Z"/><path class="cls-1" d="M213.65,39.38H286V25.9A9.52,9.52,0,0,1,268,25.7a9.53,9.53,0,0,1-18.13,0,9.52,9.52,0,0,1-18.12,0,9.52,9.52,0,0,1-18,.2Z"/></svg>